<?xml version="1.0" encoding="utf-8" standalone="no"?>
<!DOCTYPE svg PUBLIC "-//W3C//DTD SVG 1.1//EN"
  "http://www.w3.org/Graphics/SVG/1.1/DTD/svg11.dtd">
<svg xmlns:xlink="http://www.w3.org/1999/xlink" width="169.2pt" height="169.2pt" viewBox="0 0 169.2 169.2" xmlns="http://www.w3.org/2000/svg" version="1.1">
 <metadata>
  <rdf:RDF xmlns:dc="http://purl.org/dc/elements/1.1/" xmlns:cc="http://creativecommons.org/ns#" xmlns:rdf="http://www.w3.org/1999/02/22-rdf-syntax-ns#">
   <cc:Work>
    <dc:type rdf:resource="http://purl.org/dc/dcmitype/StillImage"/>
    <dc:date>2026-08-16T10:30:13.112656</dc:date>
    <dc:format>image/svg+xml</dc:format>
    <dc:creator>
     <cc:Agent>
      <dc:title>Matplotlib v3.10.0, https://matplotlib.org/</dc:title>
     </cc:Agent>
    </dc:creator>
   </cc:Work>
  </rdf:RDF>
 </metadata>
 <defs>
  <style type="text/css">*{stroke-linejoin: round; stroke-linecap: butt}</style>
 </defs>
 <g id="figure_1">
  <g id="patch_1">
   <path d="M 0 169.2 
L 169.2 169.2 
L 169.2 0 
L 0 0 
L 0 169.2 
z
" style="fill: none"/>
  </g>
  <g id="axes_1">
   <g id="patch_2">
    <path d="M 49.763765 153.38528 
C 51.066274 153.38528 52.31561 152.867788 53.236623 151.946775 
C 54.157635 151.025763 54.675128 149.776426 54.675128 148.473918 
C 54.675128 147.171409 54.157635 145.922072 53.236623 145.00106 
C 52.31561 144.080047 51.066274 143.562555 49.763765 143.562555 
C 48.461256 143.562555 47.21192 144.080047 46.290907 145.00106 
C 45.369895 145.922072 44.852402 147.171409 44.852402 148.473918 
C 44.852402 149.776426 45.369895 151.025763 46.290907 151.946775 
C 47.21192 152.867788 48.461256 153.38528 49.763765 153.38528 
z
" clip-path="url(#pd399805084)" style="fill: #1baf7a"/>
   </g>
   <g id="patch_3">
    <path d="M 62.701013 153.38528 
C 64.003521 153.38528 65.252858 152.867788 66.173871 151.946775 
C 67.094883 151.025763 67.612375 149.776426 67.612375 148.473918 
C 67.612375 147.171409 67.094883 145.922072 66.173871 145.00106 
C 65.252858 144.080047 64.003521 143.562555 62.701013 143.562555 
C 61.398504 143.562555 60.149168 144.080047 59.228155 145.00106 
C 58.307142 145.922072 57.78965 147.171409 57.78965 148.473918 
C 57.78965 149.776426 58.307142 151.025763 59.228155 151.946775 
C 60.149168 152.867788 61.398504 153.38528 62.701013 153.38528 
z
" clip-path="url(#pd399805084)" style="fill: #1baf7a"/>
   </g>
   <g id="patch_4">
    <path d="M 75.638261 153.38528 
C 76.940769 153.38528 78.190106 152.867788 79.111118 151.946775 
C 80.032131 151.025763 80.549623 149.776426 80.549623 148.473918 
C 80.549623 147.171409 80.032131 145.922072 79.111118 145.00106 
C 78.190106 144.080047 76.940769 143.562555 75.638261 143.562555 
C 74.335752 143.562555 73.086415 144.080047 72.165403 145.00106 
C 71.24439 145.922072 70.726898 147.171409 70.726898 148.473918 
C 70.726898 149.776426 71.24439 151.025763 72.165403 151.946775 
C 73.086415 152.867788 74.335752 153.38528 75.638261 153.38528 
z
" clip-path="url(#pd399805084)" style="fill: #2a78d6"/>
   </g>
   <g id="patch_5">
    <path d="M 88.575508 153.38528 
C 89.878017 153.38528 91.127354 152.867788 92.048366 151.946775 
C 92.969379 151.025763 93.486871 149.776426 93.486871 148.473918 
C 93.486871 147.171409 92.969379 145.922072 92.048366 145.00106 
C 91.127354 144.080047 89.878017 143.562555 88.575508 143.562555 
C 87.273 143.562555 86.023663 144.080047 85.102651 145.00106 
C 84.181638 145.922072 83.664146 147.171409 83.664146 148.473918 
C 83.664146 149.776426 84.181638 151.025763 85.102651 151.946775 
C 86.023663 152.867788 87.273 153.38528 88.575508 153.38528 
z
" clip-path="url(#pd399805084)" style="fill: #2a78d6"/>
   </g>
   <g id="patch_6">
    <path d="M 101.512756 153.38528 
C 102.815265 153.38528 104.064601 152.867788 104.985614 151.946775 
C 105.906627 151.025763 106.424119 149.776426 106.424119 148.473918 
C 106.424119 147.171409 105.906627 145.922072 104.985614 145.00106 
C 104.064601 144.080047 102.815265 143.562555 101.512756 143.562555 
C 100.210248 143.562555 98.960911 144.080047 98.039898 145.00106 
C 97.118886 145.922072 96.601394 147.171409 96.601394 148.473918 
C 96.601394 149.776426 97.118886 151.025763 98.039898 151.946775 
C 98.960911 152.867788 100.210248 153.38528 101.512756 153.38528 
z
" clip-path="url(#pd399805084)" style="fill: #2a78d6"/>
   </g>
   <g id="patch_7">
    <path d="M 114.450004 153.38528 
C 115.752513 153.38528 117.001849 152.867788 117.922862 151.946775 
C 118.843874 151.025763 119.361367 149.776426 119.361367 148.473918 
C 119.361367 147.171409 118.843874 145.922072 117.922862 145.00106 
C 117.001849 144.080047 115.752513 143.562555 114.450004 143.562555 
C 113.147495 143.562555 111.898159 144.080047 110.977146 145.00106 
C 110.056134 145.922072 109.538641 147.171409 109.538641 148.473918 
C 109.538641 149.776426 110.056134 151.025763 110.977146 151.946775 
C 111.898159 152.867788 113.147495 153.38528 114.450004 153.38528 
z
" clip-path="url(#pd399805084)" style="fill: #2a78d6"/>
   </g>
   <g id="patch_8">
    <path d="M 43.295141 142.181295 
C 44.59765 142.181295 45.846986 141.663803 46.767999 140.74279 
C 47.689012 139.821778 48.206504 138.572441 48.206504 137.269932 
C 48.206504 135.967424 47.689012 134.718087 46.767999 133.797075 
C 45.846986 132.876062 44.59765 132.35857 43.295141 132.35857 
C 41.992633 132.35857 40.743296 132.876062 39.822283 133.797075 
C 38.901271 134.718087 38.383779 135.967424 38.383779 137.269932 
C 38.383779 138.572441 38.901271 139.821778 39.822283 140.74279 
C 40.743296 141.663803 41.992633 142.181295 43.295141 142.181295 
z
" clip-path="url(#pd399805084)" style="fill: #1baf7a"/>
   </g>
   <g id="patch_9">
    <path d="M 56.232389 142.181295 
C 57.534898 142.181295 58.784234 141.663803 59.705247 140.74279 
C 60.626259 139.821778 61.143752 138.572441 61.143752 137.269932 
C 61.143752 135.967424 60.626259 134.718087 59.705247 133.797075 
C 58.784234 132.876062 57.534898 132.35857 56.232389 132.35857 
C 54.92988 132.35857 53.680544 132.876062 52.759531 133.797075 
C 51.838518 134.718087 51.321026 135.967424 51.321026 137.269932 
C 51.321026 138.572441 51.838518 139.821778 52.759531 140.74279 
C 53.680544 141.663803 54.92988 142.181295 56.232389 142.181295 
z
" clip-path="url(#pd399805084)" style="fill: #1baf7a"/>
   </g>
   <g id="patch_10">
    <path d="M 69.169637 142.181295 
C 70.472145 142.181295 71.721482 141.663803 72.642495 140.74279 
C 73.563507 139.821778 74.080999 138.572441 74.080999 137.269932 
C 74.080999 135.967424 73.563507 134.718087 72.642495 133.797075 
C 71.721482 132.876062 70.472145 132.35857 69.169637 132.35857 
C 67.867128 132.35857 66.617792 132.876062 65.696779 133.797075 
C 64.775766 134.718087 64.258274 135.967424 64.258274 137.269932 
C 64.258274 138.572441 64.775766 139.821778 65.696779 140.74279 
C 66.617792 141.663803 67.867128 142.181295 69.169637 142.181295 
z
" clip-path="url(#pd399805084)" style="fill: #1baf7a"/>
   </g>
   <g id="patch_11">
    <path d="M 82.106885 142.181295 
C 83.409393 142.181295 84.65873 141.663803 85.579742 140.74279 
C 86.500755 139.821778 87.018247 138.572441 87.018247 137.269932 
C 87.018247 135.967424 86.500755 134.718087 85.579742 133.797075 
C 84.65873 132.876062 83.409393 132.35857 82.106885 132.35857 
C 80.804376 132.35857 79.555039 132.876062 78.634027 133.797075 
C 77.713014 134.718087 77.195522 135.967424 77.195522 137.269932 
C 77.195522 138.572441 77.713014 139.821778 78.634027 140.74279 
C 79.555039 141.663803 80.804376 142.181295 82.106885 142.181295 
z
" clip-path="url(#pd399805084)" style="fill: #2a78d6"/>
   </g>
   <g id="patch_12">
    <path d="M 95.044132 142.181295 
C 96.346641 142.181295 97.595977 141.663803 98.51699 140.74279 
C 99.438003 139.821778 99.955495 138.572441 99.955495 137.269932 
C 99.955495 135.967424 99.438003 134.718087 98.51699 133.797075 
C 97.595977 132.876062 96.346641 132.35857 95.044132 132.35857 
C 93.741624 132.35857 92.492287 132.876062 91.571275 133.797075 
C 90.650262 134.718087 90.13277 135.967424 90.13277 137.269932 
C 90.13277 138.572441 90.650262 139.821778 91.571275 140.74279 
C 92.492287 141.663803 93.741624 142.181295 95.044132 142.181295 
z
" clip-path="url(#pd399805084)" style="fill: #2a78d6"/>
   </g>
   <g id="patch_13">
    <path d="M 107.98138 142.181295 
C 109.283889 142.181295 110.533225 141.663803 111.454238 140.74279 
C 112.375251 139.821778 112.892743 138.572441 112.892743 137.269932 
C 112.892743 135.967424 112.375251 134.718087 111.454238 133.797075 
C 110.533225 132.876062 109.283889 132.35857 107.98138 132.35857 
C 106.678872 132.35857 105.429535 132.876062 104.508522 133.797075 
C 103.58751 134.718087 103.070018 135.967424 103.070018 137.269932 
C 103.070018 138.572441 103.58751 139.821778 104.508522 140.74279 
C 105.429535 141.663803 106.678872 142.181295 107.98138 142.181295 
z
" clip-path="url(#pd399805084)" style="fill: #2a78d6"/>
   </g>
   <g id="patch_14">
    <path d="M 120.918628 142.181295 
C 122.221137 142.181295 123.470473 141.663803 124.391486 140.74279 
C 125.312498 139.821778 125.829991 138.572441 125.829991 137.269932 
C 125.829991 135.967424 125.312498 134.718087 124.391486 133.797075 
C 123.470473 132.876062 122.221137 132.35857 120.918628 132.35857 
C 119.616119 132.35857 118.366783 132.876062 117.44577 133.797075 
C 116.524758 134.718087 116.007265 135.967424 116.007265 137.269932 
C 116.007265 138.572441 116.524758 139.821778 117.44577 140.74279 
C 118.366783 141.663803 119.616119 142.181295 120.918628 142.181295 
z
" clip-path="url(#pd399805084)" style="fill: #2a78d6"/>
   </g>
   <g id="patch_15">
    <path d="M 133.855876 142.181295 
C 135.158384 142.181295 136.407721 141.663803 137.328734 140.74279 
C 138.249746 139.821778 138.767238 138.572441 138.767238 137.269932 
C 138.767238 135.967424 138.249746 134.718087 137.328734 133.797075 
C 136.407721 132.876062 135.158384 132.35857 133.855876 132.35857 
C 132.553367 132.35857 131.304031 132.876062 130.383018 133.797075 
C 129.462005 134.718087 128.944513 135.967424 128.944513 137.269932 
C 128.944513 138.572441 129.462005 139.821778 130.383018 140.74279 
C 131.304031 141.663803 132.553367 142.181295 133.855876 142.181295 
z
" clip-path="url(#pd399805084)" style="fill: #2a78d6"/>
   </g>
   <g id="patch_16">
    <path d="M 36.826517 130.97731 
C 38.129026 130.97731 39.378362 130.459818 40.299375 129.538805 
C 41.220388 128.617792 41.73788 127.368456 41.73788 126.065947 
C 41.73788 124.763439 41.220388 123.514102 40.299375 122.593089 
C 39.378362 121.672077 38.129026 121.154585 36.826517 121.154585 
C 35.524009 121.154585 34.274672 121.672077 33.353659 122.593089 
C 32.432647 123.514102 31.915155 124.763439 31.915155 126.065947 
C 31.915155 127.368456 32.432647 128.617792 33.353659 129.538805 
C 34.274672 130.459818 35.524009 130.97731 36.826517 130.97731 
z
" clip-path="url(#pd399805084)" style="fill: #1baf7a"/>
   </g>
   <g id="patch_17">
    <path d="M 49.763765 130.97731 
C 51.066274 130.97731 52.31561 130.459818 53.236623 129.538805 
C 54.157635 128.617792 54.675128 127.368456 54.675128 126.065947 
C 54.675128 124.763439 54.157635 123.514102 53.236623 122.593089 
C 52.31561 121.672077 51.066274 121.154585 49.763765 121.154585 
C 48.461256 121.154585 47.21192 121.672077 46.290907 122.593089 
C 45.369895 123.514102 44.852402 124.763439 44.852402 126.065947 
C 44.852402 127.368456 45.369895 128.617792 46.290907 129.538805 
C 47.21192 130.459818 48.461256 130.97731 49.763765 130.97731 
z
" clip-path="url(#pd399805084)" style="fill: #1baf7a"/>
   </g>
   <g id="patch_18">
    <path d="M 62.701013 130.97731 
C 64.003521 130.97731 65.252858 130.459818 66.173871 129.538805 
C 67.094883 128.617792 67.612375 127.368456 67.612375 126.065947 
C 67.612375 124.763439 67.094883 123.514102 66.173871 122.593089 
C 65.252858 121.672077 64.003521 121.154585 62.701013 121.154585 
C 61.398504 121.154585 60.149168 121.672077 59.228155 122.593089 
C 58.307142 123.514102 57.78965 124.763439 57.78965 126.065947 
C 57.78965 127.368456 58.307142 128.617792 59.228155 129.538805 
C 60.149168 130.459818 61.398504 130.97731 62.701013 130.97731 
z
" clip-path="url(#pd399805084)" style="fill: #1baf7a"/>
   </g>
   <g id="patch_19">
    <path d="M 75.638261 130.97731 
C 76.940769 130.97731 78.190106 130.459818 79.111118 129.538805 
C 80.032131 128.617792 80.549623 127.368456 80.549623 126.065947 
C 80.549623 124.763439 80.032131 123.514102 79.111118 122.593089 
C 78.190106 121.672077 76.940769 121.154585 75.638261 121.154585 
C 74.335752 121.154585 73.086415 121.672077 72.165403 122.593089 
C 71.24439 123.514102 70.726898 124.763439 70.726898 126.065947 
C 70.726898 127.368456 71.24439 128.617792 72.165403 129.538805 
C 73.086415 130.459818 74.335752 130.97731 75.638261 130.97731 
z
" clip-path="url(#pd399805084)" style="fill: #1baf7a"/>
   </g>
   <g id="patch_20">
    <path d="M 88.575508 130.97731 
C 89.878017 130.97731 91.127354 130.459818 92.048366 129.538805 
C 92.969379 128.617792 93.486871 127.368456 93.486871 126.065947 
C 93.486871 124.763439 92.969379 123.514102 92.048366 122.593089 
C 91.127354 121.672077 89.878017 121.154585 88.575508 121.154585 
C 87.273 121.154585 86.023663 121.672077 85.102651 122.593089 
C 84.181638 123.514102 83.664146 124.763439 83.664146 126.065947 
C 83.664146 127.368456 84.181638 128.617792 85.102651 129.538805 
C 86.023663 130.459818 87.273 130.97731 88.575508 130.97731 
z
" clip-path="url(#pd399805084)" style="fill: #2a78d6"/>
   </g>
   <g id="patch_21">
    <path d="M 101.512756 130.97731 
C 102.815265 130.97731 104.064601 130.459818 104.985614 129.538805 
C 105.906627 128.617792 106.424119 127.368456 106.424119 126.065947 
C 106.424119 124.763439 105.906627 123.514102 104.985614 122.593089 
C 104.064601 121.672077 102.815265 121.154585 101.512756 121.154585 
C 100.210248 121.154585 98.960911 121.672077 98.039898 122.593089 
C 97.118886 123.514102 96.601394 124.763439 96.601394 126.065947 
C 96.601394 127.368456 97.118886 128.617792 98.039898 129.538805 
C 98.960911 130.459818 100.210248 130.97731 101.512756 130.97731 
z
" clip-path="url(#pd399805084)" style="fill: #2a78d6"/>
   </g>
   <g id="patch_22">
    <path d="M 114.450004 130.97731 
C 115.752513 130.97731 117.001849 130.459818 117.922862 129.538805 
C 118.843874 128.617792 119.361367 127.368456 119.361367 126.065947 
C 119.361367 124.763439 118.843874 123.514102 117.922862 122.593089 
C 117.001849 121.672077 115.752513 121.154585 114.450004 121.154585 
C 113.147495 121.154585 111.898159 121.672077 110.977146 122.593089 
C 110.056134 123.514102 109.538641 124.763439 109.538641 126.065947 
C 109.538641 127.368456 110.056134 128.617792 110.977146 129.538805 
C 111.898159 130.459818 113.147495 130.97731 114.450004 130.97731 
z
" clip-path="url(#pd399805084)" style="fill: #2a78d6"/>
   </g>
   <g id="patch_23">
    <path d="M 127.387252 130.97731 
C 128.68976 130.97731 129.939097 130.459818 130.86011 129.538805 
C 131.781122 128.617792 132.298614 127.368456 132.298614 126.065947 
C 132.298614 124.763439 131.781122 123.514102 130.86011 122.593089 
C 129.939097 121.672077 128.68976 121.154585 127.387252 121.154585 
C 126.084743 121.154585 124.835407 121.672077 123.914394 122.593089 
C 122.993381 123.514102 122.475889 124.763439 122.475889 126.065947 
C 122.475889 127.368456 122.993381 128.617792 123.914394 129.538805 
C 124.835407 130.459818 126.084743 130.97731 127.387252 130.97731 
z
" clip-path="url(#pd399805084)" style="fill: #2a78d6"/>
   </g>
   <g id="patch_24">
    <path d="M 140.3245 130.97731 
C 141.627008 130.97731 142.876345 130.459818 143.797357 129.538805 
C 144.71837 128.617792 145.235862 127.368456 145.235862 126.065947 
C 145.235862 124.763439 144.71837 123.514102 143.797357 122.593089 
C 142.876345 121.672077 141.627008 121.154585 140.3245 121.154585 
C 139.021991 121.154585 137.772655 121.672077 136.851642 122.593089 
C 135.930629 123.514102 135.413137 124.763439 135.413137 126.065947 
C 135.413137 127.368456 135.930629 128.617792 136.851642 129.538805 
C 137.772655 130.459818 139.021991 130.97731 140.3245 130.97731 
z
" clip-path="url(#pd399805084)" style="fill: #2a78d6"/>
   </g>
   <g id="patch_25">
    <path d="M 120.918628 119.773324 
C 122.221137 119.773324 123.470473 119.255832 124.391486 118.33482 
C 125.312498 117.413807 125.829991 116.16447 125.829991 114.861962 
C 125.829991 113.559453 125.312498 112.310117 124.391486 111.389104 
C 123.470473 110.468091 122.221137 109.950599 120.918628 109.950599 
C 119.616119 109.950599 118.366783 110.468091 117.44577 111.389104 
C 116.524758 112.310117 116.007265 113.559453 116.007265 114.861962 
C 116.007265 116.16447 116.524758 117.413807 117.44577 118.33482 
C 118.366783 119.255832 119.616119 119.773324 120.918628 119.773324 
z
" clip-path="url(#pd399805084)" style="fill: #2a78d6"/>
   </g>
   <g id="patch_26">
    <path d="M 133.855876 119.773324 
C 135.158384 119.773324 136.407721 119.255832 137.328734 118.33482 
C 138.249746 117.413807 138.767238 116.16447 138.767238 114.861962 
C 138.767238 113.559453 138.249746 112.310117 137.328734 111.389104 
C 136.407721 110.468091 135.158384 109.950599 133.855876 109.950599 
C 132.553367 109.950599 131.304031 110.468091 130.383018 111.389104 
C 129.462005 112.310117 128.944513 113.559453 128.944513 114.861962 
C 128.944513 116.16447 129.462005 117.413807 130.383018 118.33482 
C 131.304031 119.255832 132.553367 119.773324 133.855876 119.773324 
z
" clip-path="url(#pd399805084)" style="fill: #2a78d6"/>
   </g>
   <g id="patch_27">
    <path d="M 146.793124 119.773324 
C 148.095632 119.773324 149.344969 119.255832 150.265981 118.33482 
C 151.186994 117.413807 151.704486 116.16447 151.704486 114.861962 
C 151.704486 113.559453 151.186994 112.310117 150.265981 111.389104 
C 149.344969 110.468091 148.095632 109.950599 146.793124 109.950599 
C 145.490615 109.950599 144.241278 110.468091 143.320266 111.389104 
C 142.399253 112.310117 141.881761 113.559453 141.881761 114.861962 
C 141.881761 116.16447 142.399253 117.413807 143.320266 118.33482 
C 144.241278 119.255832 145.490615 119.773324 146.793124 119.773324 
z
" clip-path="url(#pd399805084)" style="fill: #2a78d6"/>
   </g>
   <g id="patch_28">
    <path d="M 114.450004 108.569339 
C 115.752513 108.569339 117.001849 108.051847 117.922862 107.130834 
C 118.843874 106.209822 119.361367 104.960485 119.361367 103.657977 
C 119.361367 102.355468 118.843874 101.106131 117.922862 100.185119 
C 117.001849 99.264106 115.752513 98.746614 114.450004 98.746614 
C 113.147495 98.746614 111.898159 99.264106 110.977146 100.185119 
C 110.056134 101.106131 109.538641 102.355468 109.538641 103.657977 
C 109.538641 104.960485 110.056134 106.209822 110.977146 107.130834 
C 111.898159 108.051847 113.147495 108.569339 114.450004 108.569339 
z
" clip-path="url(#pd399805084)" style="fill: #2a78d6"/>
   </g>
   <g id="patch_29">
    <path d="M 127.387252 108.569339 
C 128.68976 108.569339 129.939097 108.051847 130.86011 107.130834 
C 131.781122 106.209822 132.298614 104.960485 132.298614 103.657977 
C 132.298614 102.355468 131.781122 101.106131 130.86011 100.185119 
C 129.939097 99.264106 128.68976 98.746614 127.387252 98.746614 
C 126.084743 98.746614 124.835407 99.264106 123.914394 100.185119 
C 122.993381 101.106131 122.475889 102.355468 122.475889 103.657977 
C 122.475889 104.960485 122.993381 106.209822 123.914394 107.130834 
C 124.835407 108.051847 126.084743 108.569339 127.387252 108.569339 
z
" clip-path="url(#pd399805084)" style="fill: #2a78d6"/>
   </g>
   <g id="patch_30">
    <path d="M 140.3245 108.569339 
C 141.627008 108.569339 142.876345 108.051847 143.797357 107.130834 
C 144.71837 106.209822 145.235862 104.960485 145.235862 103.657977 
C 145.235862 102.355468 144.71837 101.106131 143.797357 100.185119 
C 142.876345 99.264106 141.627008 98.746614 140.3245 98.746614 
C 139.021991 98.746614 137.772655 99.264106 136.851642 100.185119 
C 135.930629 101.106131 135.413137 102.355468 135.413137 103.657977 
C 135.413137 104.960485 135.930629 106.209822 136.851642 107.130834 
C 137.772655 108.051847 139.021991 108.569339 140.3245 108.569339 
z
" clip-path="url(#pd399805084)" style="fill: #2a78d6"/>
   </g>
   <g id="patch_31">
    <path d="M 56.232389 97.365354 
C 57.534898 97.365354 58.784234 96.847862 59.705247 95.926849 
C 60.626259 95.005836 61.143752 93.7565 61.143752 92.453991 
C 61.143752 91.151483 60.626259 89.902146 59.705247 88.981134 
C 58.784234 88.060121 57.534898 87.542629 56.232389 87.542629 
C 54.92988 87.542629 53.680544 88.060121 52.759531 88.981134 
C 51.838518 89.902146 51.321026 91.151483 51.321026 92.453991 
C 51.321026 93.7565 51.838518 95.005836 52.759531 95.926849 
C 53.680544 96.847862 54.92988 97.365354 56.232389 97.365354 
z
" clip-path="url(#pd399805084)" style="fill: #2a78d6"/>
   </g>
   <g id="patch_32">
    <path d="M 69.169637 97.365354 
C 70.472145 97.365354 71.721482 96.847862 72.642495 95.926849 
C 73.563507 95.005836 74.080999 93.7565 74.080999 92.453991 
C 74.080999 91.151483 73.563507 89.902146 72.642495 88.981134 
C 71.721482 88.060121 70.472145 87.542629 69.169637 87.542629 
C 67.867128 87.542629 66.617792 88.060121 65.696779 88.981134 
C 64.775766 89.902146 64.258274 91.151483 64.258274 92.453991 
C 64.258274 93.7565 64.775766 95.005836 65.696779 95.926849 
C 66.617792 96.847862 67.867128 97.365354 69.169637 97.365354 
z
" clip-path="url(#pd399805084)" style="fill: #2a78d6"/>
   </g>
   <g id="patch_33">
    <path d="M 82.106885 97.365354 
C 83.409393 97.365354 84.65873 96.847862 85.579742 95.926849 
C 86.500755 95.005836 87.018247 93.7565 87.018247 92.453991 
C 87.018247 91.151483 86.500755 89.902146 85.579742 88.981134 
C 84.65873 88.060121 83.409393 87.542629 82.106885 87.542629 
C 80.804376 87.542629 79.555039 88.060121 78.634027 88.981134 
C 77.713014 89.902146 77.195522 91.151483 77.195522 92.453991 
C 77.195522 93.7565 77.713014 95.005836 78.634027 95.926849 
C 79.555039 96.847862 80.804376 97.365354 82.106885 97.365354 
z
" clip-path="url(#pd399805084)" style="fill: #2a78d6"/>
   </g>
   <g id="patch_34">
    <path d="M 95.044132 97.365354 
C 96.346641 97.365354 97.595977 96.847862 98.51699 95.926849 
C 99.438003 95.005836 99.955495 93.7565 99.955495 92.453991 
C 99.955495 91.151483 99.438003 89.902146 98.51699 88.981134 
C 97.595977 88.060121 96.346641 87.542629 95.044132 87.542629 
C 93.741624 87.542629 92.492287 88.060121 91.571275 88.981134 
C 90.650262 89.902146 90.13277 91.151483 90.13277 92.453991 
C 90.13277 93.7565 90.650262 95.005836 91.571275 95.926849 
C 92.492287 96.847862 93.741624 97.365354 95.044132 97.365354 
z
" clip-path="url(#pd399805084)" style="fill: #2a78d6"/>
   </g>
   <g id="patch_35">
    <path d="M 107.98138 97.365354 
C 109.283889 97.365354 110.533225 96.847862 111.454238 95.926849 
C 112.375251 95.005836 112.892743 93.7565 112.892743 92.453991 
C 112.892743 91.151483 112.375251 89.902146 111.454238 88.981134 
C 110.533225 88.060121 109.283889 87.542629 107.98138 87.542629 
C 106.678872 87.542629 105.429535 88.060121 104.508522 88.981134 
C 103.58751 89.902146 103.070018 91.151483 103.070018 92.453991 
C 103.070018 93.7565 103.58751 95.005836 104.508522 95.926849 
C 105.429535 96.847862 106.678872 97.365354 107.98138 97.365354 
z
" clip-path="url(#pd399805084)" style="fill: #2a78d6"/>
   </g>
   <g id="patch_36">
    <path d="M 120.918628 97.365354 
C 122.221137 97.365354 123.470473 96.847862 124.391486 95.926849 
C 125.312498 95.005836 125.829991 93.7565 125.829991 92.453991 
C 125.829991 91.151483 125.312498 89.902146 124.391486 88.981134 
C 123.470473 88.060121 122.221137 87.542629 120.918628 87.542629 
C 119.616119 87.542629 118.366783 88.060121 117.44577 88.981134 
C 116.524758 89.902146 116.007265 91.151483 116.007265 92.453991 
C 116.007265 93.7565 116.524758 95.005836 117.44577 95.926849 
C 118.366783 96.847862 119.616119 97.365354 120.918628 97.365354 
z
" clip-path="url(#pd399805084)" style="fill: #2a78d6"/>
   </g>
   <g id="patch_37">
    <path d="M 133.855876 97.365354 
C 135.158384 97.365354 136.407721 96.847862 137.328734 95.926849 
C 138.249746 95.005836 138.767238 93.7565 138.767238 92.453991 
C 138.767238 91.151483 138.249746 89.902146 137.328734 88.981134 
C 136.407721 88.060121 135.158384 87.542629 133.855876 87.542629 
C 132.553367 87.542629 131.304031 88.060121 130.383018 88.981134 
C 129.462005 89.902146 128.944513 91.151483 128.944513 92.453991 
C 128.944513 93.7565 129.462005 95.005836 130.383018 95.926849 
C 131.304031 96.847862 132.553367 97.365354 133.855876 97.365354 
z
" clip-path="url(#pd399805084)" style="fill: #2a78d6"/>
   </g>
   <g id="patch_38">
    <path d="M 146.793124 97.365354 
C 148.095632 97.365354 149.344969 96.847862 150.265981 95.926849 
C 151.186994 95.005836 151.704486 93.7565 151.704486 92.453991 
C 151.704486 91.151483 151.186994 89.902146 150.265981 88.981134 
C 149.344969 88.060121 148.095632 87.542629 146.793124 87.542629 
C 145.490615 87.542629 144.241278 88.060121 143.320266 88.981134 
C 142.399253 89.902146 141.881761 91.151483 141.881761 92.453991 
C 141.881761 93.7565 142.399253 95.005836 143.320266 95.926849 
C 144.241278 96.847862 145.490615 97.365354 146.793124 97.365354 
z
" clip-path="url(#pd399805084)" style="fill: #2a78d6"/>
   </g>
   <g id="patch_39">
    <path d="M 49.763765 86.161369 
C 51.066274 86.161369 52.31561 85.643877 53.236623 84.722864 
C 54.157635 83.801851 54.675128 82.552515 54.675128 81.250006 
C 54.675128 79.947498 54.157635 78.698161 53.236623 77.777148 
C 52.31561 76.856136 51.066274 76.338644 49.763765 76.338644 
C 48.461256 76.338644 47.21192 76.856136 46.290907 77.777148 
C 45.369895 78.698161 44.852402 79.947498 44.852402 81.250006 
C 44.852402 82.552515 45.369895 83.801851 46.290907 84.722864 
C 47.21192 85.643877 48.461256 86.161369 49.763765 86.161369 
z
" clip-path="url(#pd399805084)" style="fill: #2a78d6"/>
   </g>
   <g id="patch_40">
    <path d="M 62.701013 86.161369 
C 64.003521 86.161369 65.252858 85.643877 66.173871 84.722864 
C 67.094883 83.801851 67.612375 82.552515 67.612375 81.250006 
C 67.612375 79.947498 67.094883 78.698161 66.173871 77.777148 
C 65.252858 76.856136 64.003521 76.338644 62.701013 76.338644 
C 61.398504 76.338644 60.149168 76.856136 59.228155 77.777148 
C 58.307142 78.698161 57.78965 79.947498 57.78965 81.250006 
C 57.78965 82.552515 58.307142 83.801851 59.228155 84.722864 
C 60.149168 85.643877 61.398504 86.161369 62.701013 86.161369 
z
" clip-path="url(#pd399805084)" style="fill: #2a78d6"/>
   </g>
   <g id="patch_41">
    <path d="M 75.638261 86.161369 
C 76.940769 86.161369 78.190106 85.643877 79.111118 84.722864 
C 80.032131 83.801851 80.549623 82.552515 80.549623 81.250006 
C 80.549623 79.947498 80.032131 78.698161 79.111118 77.777148 
C 78.190106 76.856136 76.940769 76.338644 75.638261 76.338644 
C 74.335752 76.338644 73.086415 76.856136 72.165403 77.777148 
C 71.24439 78.698161 70.726898 79.947498 70.726898 81.250006 
C 70.726898 82.552515 71.24439 83.801851 72.165403 84.722864 
C 73.086415 85.643877 74.335752 86.161369 75.638261 86.161369 
z
" clip-path="url(#pd399805084)" style="fill: #2a78d6"/>
   </g>
   <g id="patch_42">
    <path d="M 88.575508 86.161369 
C 89.878017 86.161369 91.127354 85.643877 92.048366 84.722864 
C 92.969379 83.801851 93.486871 82.552515 93.486871 81.250006 
C 93.486871 79.947498 92.969379 78.698161 92.048366 77.777148 
C 91.127354 76.856136 89.878017 76.338644 88.575508 76.338644 
C 87.273 76.338644 86.023663 76.856136 85.102651 77.777148 
C 84.181638 78.698161 83.664146 79.947498 83.664146 81.250006 
C 83.664146 82.552515 84.181638 83.801851 85.102651 84.722864 
C 86.023663 85.643877 87.273 86.161369 88.575508 86.161369 
z
" clip-path="url(#pd399805084)" style="fill: #2a78d6"/>
   </g>
   <g id="patch_43">
    <path d="M 101.512756 86.161369 
C 102.815265 86.161369 104.064601 85.643877 104.985614 84.722864 
C 105.906627 83.801851 106.424119 82.552515 106.424119 81.250006 
C 106.424119 79.947498 105.906627 78.698161 104.985614 77.777148 
C 104.064601 76.856136 102.815265 76.338644 101.512756 76.338644 
C 100.210248 76.338644 98.960911 76.856136 98.039898 77.777148 
C 97.118886 78.698161 96.601394 79.947498 96.601394 81.250006 
C 96.601394 82.552515 97.118886 83.801851 98.039898 84.722864 
C 98.960911 85.643877 100.210248 86.161369 101.512756 86.161369 
z
" clip-path="url(#pd399805084)" style="fill: #2a78d6"/>
   </g>
   <g id="patch_44">
    <path d="M 114.450004 86.161369 
C 115.752513 86.161369 117.001849 85.643877 117.922862 84.722864 
C 118.843874 83.801851 119.361367 82.552515 119.361367 81.250006 
C 119.361367 79.947498 118.843874 78.698161 117.922862 77.777148 
C 117.001849 76.856136 115.752513 76.338644 114.450004 76.338644 
C 113.147495 76.338644 111.898159 76.856136 110.977146 77.777148 
C 110.056134 78.698161 109.538641 79.947498 109.538641 81.250006 
C 109.538641 82.552515 110.056134 83.801851 110.977146 84.722864 
C 111.898159 85.643877 113.147495 86.161369 114.450004 86.161369 
z
" clip-path="url(#pd399805084)" style="fill: #2a78d6"/>
   </g>
   <g id="patch_45">
    <path d="M 127.387252 86.161369 
C 128.68976 86.161369 129.939097 85.643877 130.86011 84.722864 
C 131.781122 83.801851 132.298614 82.552515 132.298614 81.250006 
C 132.298614 79.947498 131.781122 78.698161 130.86011 77.777148 
C 129.939097 76.856136 128.68976 76.338644 127.387252 76.338644 
C 126.084743 76.338644 124.835407 76.856136 123.914394 77.777148 
C 122.993381 78.698161 122.475889 79.947498 122.475889 81.250006 
C 122.475889 82.552515 122.993381 83.801851 123.914394 84.722864 
C 124.835407 85.643877 126.084743 86.161369 127.387252 86.161369 
z
" clip-path="url(#pd399805084)" style="fill: #2a78d6"/>
   </g>
   <g id="patch_46">
    <path d="M 43.295141 74.957383 
C 44.59765 74.957383 45.846986 74.439891 46.767999 73.518879 
C 47.689012 72.597866 48.206504 71.348529 48.206504 70.046021 
C 48.206504 68.743512 47.689012 67.494176 46.767999 66.573163 
C 45.846986 65.65215 44.59765 65.134658 43.295141 65.134658 
C 41.992633 65.134658 40.743296 65.65215 39.822283 66.573163 
C 38.901271 67.494176 38.383779 68.743512 38.383779 70.046021 
C 38.383779 71.348529 38.901271 72.597866 39.822283 73.518879 
C 40.743296 74.439891 41.992633 74.957383 43.295141 74.957383 
z
" clip-path="url(#pd399805084)" style="fill: #2a78d6"/>
   </g>
   <g id="patch_47">
    <path d="M 56.232389 74.957383 
C 57.534898 74.957383 58.784234 74.439891 59.705247 73.518879 
C 60.626259 72.597866 61.143752 71.348529 61.143752 70.046021 
C 61.143752 68.743512 60.626259 67.494176 59.705247 66.573163 
C 58.784234 65.65215 57.534898 65.134658 56.232389 65.134658 
C 54.92988 65.134658 53.680544 65.65215 52.759531 66.573163 
C 51.838518 67.494176 51.321026 68.743512 51.321026 70.046021 
C 51.321026 71.348529 51.838518 72.597866 52.759531 73.518879 
C 53.680544 74.439891 54.92988 74.957383 56.232389 74.957383 
z
" clip-path="url(#pd399805084)" style="fill: #2a78d6"/>
   </g>
   <g id="patch_48">
    <path d="M 69.169637 74.957383 
C 70.472145 74.957383 71.721482 74.439891 72.642495 73.518879 
C 73.563507 72.597866 74.080999 71.348529 74.080999 70.046021 
C 74.080999 68.743512 73.563507 67.494176 72.642495 66.573163 
C 71.721482 65.65215 70.472145 65.134658 69.169637 65.134658 
C 67.867128 65.134658 66.617792 65.65215 65.696779 66.573163 
C 64.775766 67.494176 64.258274 68.743512 64.258274 70.046021 
C 64.258274 71.348529 64.775766 72.597866 65.696779 73.518879 
C 66.617792 74.439891 67.867128 74.957383 69.169637 74.957383 
z
" clip-path="url(#pd399805084)" style="fill: #2a78d6"/>
   </g>
   <g id="patch_49">
    <path d="M 82.106885 74.957383 
C 83.409393 74.957383 84.65873 74.439891 85.579742 73.518879 
C 86.500755 72.597866 87.018247 71.348529 87.018247 70.046021 
C 87.018247 68.743512 86.500755 67.494176 85.579742 66.573163 
C 84.65873 65.65215 83.409393 65.134658 82.106885 65.134658 
C 80.804376 65.134658 79.555039 65.65215 78.634027 66.573163 
C 77.713014 67.494176 77.195522 68.743512 77.195522 70.046021 
C 77.195522 71.348529 77.713014 72.597866 78.634027 73.518879 
C 79.555039 74.439891 80.804376 74.957383 82.106885 74.957383 
z
" clip-path="url(#pd399805084)" style="fill: #2a78d6"/>
   </g>
   <g id="patch_50">
    <path d="M 95.044132 74.957383 
C 96.346641 74.957383 97.595977 74.439891 98.51699 73.518879 
C 99.438003 72.597866 99.955495 71.348529 99.955495 70.046021 
C 99.955495 68.743512 99.438003 67.494176 98.51699 66.573163 
C 97.595977 65.65215 96.346641 65.134658 95.044132 65.134658 
C 93.741624 65.134658 92.492287 65.65215 91.571275 66.573163 
C 90.650262 67.494176 90.13277 68.743512 90.13277 70.046021 
C 90.13277 71.348529 90.650262 72.597866 91.571275 73.518879 
C 92.492287 74.439891 93.741624 74.957383 95.044132 74.957383 
z
" clip-path="url(#pd399805084)" style="fill: #2a78d6"/>
   </g>
   <g id="patch_51">
    <path d="M 107.98138 74.957383 
C 109.283889 74.957383 110.533225 74.439891 111.454238 73.518879 
C 112.375251 72.597866 112.892743 71.348529 112.892743 70.046021 
C 112.892743 68.743512 112.375251 67.494176 111.454238 66.573163 
C 110.533225 65.65215 109.283889 65.134658 107.98138 65.134658 
C 106.678872 65.134658 105.429535 65.65215 104.508522 66.573163 
C 103.58751 67.494176 103.070018 68.743512 103.070018 70.046021 
C 103.070018 71.348529 103.58751 72.597866 104.508522 73.518879 
C 105.429535 74.439891 106.678872 74.957383 107.98138 74.957383 
z
" clip-path="url(#pd399805084)" style="fill: #eb6834"/>
   </g>
   <g id="patch_52">
    <path d="M 36.826517 63.753398 
C 38.129026 63.753398 39.378362 63.235906 40.299375 62.314893 
C 41.220388 61.393881 41.73788 60.144544 41.73788 58.842036 
C 41.73788 57.539527 41.220388 56.29019 40.299375 55.369178 
C 39.378362 54.448165 38.129026 53.930673 36.826517 53.930673 
C 35.524009 53.930673 34.274672 54.448165 33.353659 55.369178 
C 32.432647 56.29019 31.915155 57.539527 31.915155 58.842036 
C 31.915155 60.144544 32.432647 61.393881 33.353659 62.314893 
C 34.274672 63.235906 35.524009 63.753398 36.826517 63.753398 
z
" clip-path="url(#pd399805084)" style="fill: #2a78d6"/>
   </g>
   <g id="patch_53">
    <path d="M 49.763765 63.753398 
C 51.066274 63.753398 52.31561 63.235906 53.236623 62.314893 
C 54.157635 61.393881 54.675128 60.144544 54.675128 58.842036 
C 54.675128 57.539527 54.157635 56.29019 53.236623 55.369178 
C 52.31561 54.448165 51.066274 53.930673 49.763765 53.930673 
C 48.461256 53.930673 47.21192 54.448165 46.290907 55.369178 
C 45.369895 56.29019 44.852402 57.539527 44.852402 58.842036 
C 44.852402 60.144544 45.369895 61.393881 46.290907 62.314893 
C 47.21192 63.235906 48.461256 63.753398 49.763765 63.753398 
z
" clip-path="url(#pd399805084)" style="fill: #2a78d6"/>
   </g>
   <g id="patch_54">
    <path d="M 62.701013 63.753398 
C 64.003521 63.753398 65.252858 63.235906 66.173871 62.314893 
C 67.094883 61.393881 67.612375 60.144544 67.612375 58.842036 
C 67.612375 57.539527 67.094883 56.29019 66.173871 55.369178 
C 65.252858 54.448165 64.003521 53.930673 62.701013 53.930673 
C 61.398504 53.930673 60.149168 54.448165 59.228155 55.369178 
C 58.307142 56.29019 57.78965 57.539527 57.78965 58.842036 
C 57.78965 60.144544 58.307142 61.393881 59.228155 62.314893 
C 60.149168 63.235906 61.398504 63.753398 62.701013 63.753398 
z
" clip-path="url(#pd399805084)" style="fill: #2a78d6"/>
   </g>
   <g id="patch_55">
    <path d="M 43.295141 52.549413 
C 44.59765 52.549413 45.846986 52.031921 46.767999 51.110908 
C 47.689012 50.189895 48.206504 48.940559 48.206504 47.63805 
C 48.206504 46.335542 47.689012 45.086205 46.767999 44.165193 
C 45.846986 43.24418 44.59765 42.726688 43.295141 42.726688 
C 41.992633 42.726688 40.743296 43.24418 39.822283 44.165193 
C 38.901271 45.086205 38.383779 46.335542 38.383779 47.63805 
C 38.383779 48.940559 38.901271 50.189895 39.822283 51.110908 
C 40.743296 52.031921 41.992633 52.549413 43.295141 52.549413 
z
" clip-path="url(#pd399805084)" style="fill: #2a78d6"/>
   </g>
   <g id="patch_56">
    <path d="M 56.232389 52.549413 
C 57.534898 52.549413 58.784234 52.031921 59.705247 51.110908 
C 60.626259 50.189895 61.143752 48.940559 61.143752 47.63805 
C 61.143752 46.335542 60.626259 45.086205 59.705247 44.165193 
C 58.784234 43.24418 57.534898 42.726688 56.232389 42.726688 
C 54.92988 42.726688 53.680544 43.24418 52.759531 44.165193 
C 51.838518 45.086205 51.321026 46.335542 51.321026 47.63805 
C 51.321026 48.940559 51.838518 50.189895 52.759531 51.110908 
C 53.680544 52.031921 54.92988 52.549413 56.232389 52.549413 
z
" clip-path="url(#pd399805084)" style="fill: #2a78d6"/>
   </g>
   <g id="patch_57">
    <path d="M 69.169637 52.549413 
C 70.472145 52.549413 71.721482 52.031921 72.642495 51.110908 
C 73.563507 50.189895 74.080999 48.940559 74.080999 47.63805 
C 74.080999 46.335542 73.563507 45.086205 72.642495 44.165193 
C 71.721482 43.24418 70.472145 42.726688 69.169637 42.726688 
C 67.867128 42.726688 66.617792 43.24418 65.696779 44.165193 
C 64.775766 45.086205 64.258274 46.335542 64.258274 47.63805 
C 64.258274 48.940559 64.775766 50.189895 65.696779 51.110908 
C 66.617792 52.031921 67.867128 52.549413 69.169637 52.549413 
z
" clip-path="url(#pd399805084)" style="fill: #2a78d6"/>
   </g>
   <g id="patch_58">
    <path d="M 120.918628 52.549413 
C 122.221137 52.549413 123.470473 52.031921 124.391486 51.110908 
C 125.312498 50.189895 125.829991 48.940559 125.829991 47.63805 
C 125.829991 46.335542 125.312498 45.086205 124.391486 44.165193 
C 123.470473 43.24418 122.221137 42.726688 120.918628 42.726688 
C 119.616119 42.726688 118.366783 43.24418 117.44577 44.165193 
C 116.524758 45.086205 116.007265 46.335542 116.007265 47.63805 
C 116.007265 48.940559 116.524758 50.189895 117.44577 51.110908 
C 118.366783 52.031921 119.616119 52.549413 120.918628 52.549413 
z
" clip-path="url(#pd399805084)" style="fill: #eb6834"/>
   </g>
   <g id="patch_59">
    <path d="M 133.855876 52.549413 
C 135.158384 52.549413 136.407721 52.031921 137.328734 51.110908 
C 138.249746 50.189895 138.767238 48.940559 138.767238 47.63805 
C 138.767238 46.335542 138.249746 45.086205 137.328734 44.165193 
C 136.407721 43.24418 135.158384 42.726688 133.855876 42.726688 
C 132.553367 42.726688 131.304031 43.24418 130.383018 44.165193 
C 129.462005 45.086205 128.944513 46.335542 128.944513 47.63805 
C 128.944513 48.940559 129.462005 50.189895 130.383018 51.110908 
C 131.304031 52.031921 132.553367 52.549413 133.855876 52.549413 
z
" clip-path="url(#pd399805084)" style="fill: #eb6834"/>
   </g>
   <g id="patch_60">
    <path d="M 36.826517 41.345428 
C 38.129026 41.345428 39.378362 40.827936 40.299375 39.906923 
C 41.220388 38.98591 41.73788 37.736574 41.73788 36.434065 
C 41.73788 35.131556 41.220388 33.88222 40.299375 32.961207 
C 39.378362 32.040195 38.129026 31.522702 36.826517 31.522702 
C 35.524009 31.522702 34.274672 32.040195 33.353659 32.961207 
C 32.432647 33.88222 31.915155 35.131556 31.915155 36.434065 
C 31.915155 37.736574 32.432647 38.98591 33.353659 39.906923 
C 34.274672 40.827936 35.524009 41.345428 36.826517 41.345428 
z
" clip-path="url(#pd399805084)" style="fill: #2a78d6"/>
   </g>
   <g id="patch_61">
    <path d="M 49.763765 41.345428 
C 51.066274 41.345428 52.31561 40.827936 53.236623 39.906923 
C 54.157635 38.98591 54.675128 37.736574 54.675128 36.434065 
C 54.675128 35.131556 54.157635 33.88222 53.236623 32.961207 
C 52.31561 32.040195 51.066274 31.522702 49.763765 31.522702 
C 48.461256 31.522702 47.21192 32.040195 46.290907 32.961207 
C 45.369895 33.88222 44.852402 35.131556 44.852402 36.434065 
C 44.852402 37.736574 45.369895 38.98591 46.290907 39.906923 
C 47.21192 40.827936 48.461256 41.345428 49.763765 41.345428 
z
" clip-path="url(#pd399805084)" style="fill: #2a78d6"/>
   </g>
   <g id="patch_62">
    <path d="M 62.701013 41.345428 
C 64.003521 41.345428 65.252858 40.827936 66.173871 39.906923 
C 67.094883 38.98591 67.612375 37.736574 67.612375 36.434065 
C 67.612375 35.131556 67.094883 33.88222 66.173871 32.961207 
C 65.252858 32.040195 64.003521 31.522702 62.701013 31.522702 
C 61.398504 31.522702 60.149168 32.040195 59.228155 32.961207 
C 58.307142 33.88222 57.78965 35.131556 57.78965 36.434065 
C 57.78965 37.736574 58.307142 38.98591 59.228155 39.906923 
C 60.149168 40.827936 61.398504 41.345428 62.701013 41.345428 
z
" clip-path="url(#pd399805084)" style="fill: #2a78d6"/>
   </g>
   <g id="patch_63">
    <path d="M 75.638261 41.345428 
C 76.940769 41.345428 78.190106 40.827936 79.111118 39.906923 
C 80.032131 38.98591 80.549623 37.736574 80.549623 36.434065 
C 80.549623 35.131556 80.032131 33.88222 79.111118 32.961207 
C 78.190106 32.040195 76.940769 31.522702 75.638261 31.522702 
C 74.335752 31.522702 73.086415 32.040195 72.165403 32.961207 
C 71.24439 33.88222 70.726898 35.131556 70.726898 36.434065 
C 70.726898 37.736574 71.24439 38.98591 72.165403 39.906923 
C 73.086415 40.827936 74.335752 41.345428 75.638261 41.345428 
z
" clip-path="url(#pd399805084)" style="fill: #2a78d6"/>
   </g>
   <g id="patch_64">
    <path d="M 88.575508 41.345428 
C 89.878017 41.345428 91.127354 40.827936 92.048366 39.906923 
C 92.969379 38.98591 93.486871 37.736574 93.486871 36.434065 
C 93.486871 35.131556 92.969379 33.88222 92.048366 32.961207 
C 91.127354 32.040195 89.878017 31.522702 88.575508 31.522702 
C 87.273 31.522702 86.023663 32.040195 85.102651 32.961207 
C 84.181638 33.88222 83.664146 35.131556 83.664146 36.434065 
C 83.664146 37.736574 84.181638 38.98591 85.102651 39.906923 
C 86.023663 40.827936 87.273 41.345428 88.575508 41.345428 
z
" clip-path="url(#pd399805084)" style="fill: #2a78d6"/>
   </g>
   <g id="patch_65">
    <path d="M 101.512756 41.345428 
C 102.815265 41.345428 104.064601 40.827936 104.985614 39.906923 
C 105.906627 38.98591 106.424119 37.736574 106.424119 36.434065 
C 106.424119 35.131556 105.906627 33.88222 104.985614 32.961207 
C 104.064601 32.040195 102.815265 31.522702 101.512756 31.522702 
C 100.210248 31.522702 98.960911 32.040195 98.039898 32.961207 
C 97.118886 33.88222 96.601394 35.131556 96.601394 36.434065 
C 96.601394 37.736574 97.118886 38.98591 98.039898 39.906923 
C 98.960911 40.827936 100.210248 41.345428 101.512756 41.345428 
z
" clip-path="url(#pd399805084)" style="fill: #eb6834"/>
   </g>
   <g id="patch_66">
    <path d="M 114.450004 41.345428 
C 115.752513 41.345428 117.001849 40.827936 117.922862 39.906923 
C 118.843874 38.98591 119.361367 37.736574 119.361367 36.434065 
C 119.361367 35.131556 118.843874 33.88222 117.922862 32.961207 
C 117.001849 32.040195 115.752513 31.522702 114.450004 31.522702 
C 113.147495 31.522702 111.898159 32.040195 110.977146 32.961207 
C 110.056134 33.88222 109.538641 35.131556 109.538641 36.434065 
C 109.538641 37.736574 110.056134 38.98591 110.977146 39.906923 
C 111.898159 40.827936 113.147495 41.345428 114.450004 41.345428 
z
" clip-path="url(#pd399805084)" style="fill: #eb6834"/>
   </g>
   <g id="patch_67">
    <path d="M 127.387252 41.345428 
C 128.68976 41.345428 129.939097 40.827936 130.86011 39.906923 
C 131.781122 38.98591 132.298614 37.736574 132.298614 36.434065 
C 132.298614 35.131556 131.781122 33.88222 130.86011 32.961207 
C 129.939097 32.040195 128.68976 31.522702 127.387252 31.522702 
C 126.084743 31.522702 124.835407 32.040195 123.914394 32.961207 
C 122.993381 33.88222 122.475889 35.131556 122.475889 36.434065 
C 122.475889 37.736574 122.993381 38.98591 123.914394 39.906923 
C 124.835407 40.827936 126.084743 41.345428 127.387252 41.345428 
z
" clip-path="url(#pd399805084)" style="fill: #eb6834"/>
   </g>
   <g id="patch_68">
    <path d="M 140.3245 41.345428 
C 141.627008 41.345428 142.876345 40.827936 143.797357 39.906923 
C 144.71837 38.98591 145.235862 37.736574 145.235862 36.434065 
C 145.235862 35.131556 144.71837 33.88222 143.797357 32.961207 
C 142.876345 32.040195 141.627008 31.522702 140.3245 31.522702 
C 139.021991 31.522702 137.772655 32.040195 136.851642 32.961207 
C 135.930629 33.88222 135.413137 35.131556 135.413137 36.434065 
C 135.413137 37.736574 135.930629 38.98591 136.851642 39.906923 
C 137.772655 40.827936 139.021991 41.345428 140.3245 41.345428 
z
" clip-path="url(#pd399805084)" style="fill: #eb6834"/>
   </g>
   <g id="patch_69">
    <path d="M 56.232389 30.141442 
C 57.534898 30.141442 58.784234 29.62395 59.705247 28.702938 
C 60.626259 27.781925 61.143752 26.532588 61.143752 25.23008 
C 61.143752 23.927571 60.626259 22.678235 59.705247 21.757222 
C 58.784234 20.836209 57.534898 20.318717 56.232389 20.318717 
C 54.92988 20.318717 53.680544 20.836209 52.759531 21.757222 
C 51.838518 22.678235 51.321026 23.927571 51.321026 25.23008 
C 51.321026 26.532588 51.838518 27.781925 52.759531 28.702938 
C 53.680544 29.62395 54.92988 30.141442 56.232389 30.141442 
z
" clip-path="url(#pd399805084)" style="fill: #2a78d6"/>
   </g>
   <g id="patch_70">
    <path d="M 69.169637 30.141442 
C 70.472145 30.141442 71.721482 29.62395 72.642495 28.702938 
C 73.563507 27.781925 74.080999 26.532588 74.080999 25.23008 
C 74.080999 23.927571 73.563507 22.678235 72.642495 21.757222 
C 71.721482 20.836209 70.472145 20.318717 69.169637 20.318717 
C 67.867128 20.318717 66.617792 20.836209 65.696779 21.757222 
C 64.775766 22.678235 64.258274 23.927571 64.258274 25.23008 
C 64.258274 26.532588 64.775766 27.781925 65.696779 28.702938 
C 66.617792 29.62395 67.867128 30.141442 69.169637 30.141442 
z
" clip-path="url(#pd399805084)" style="fill: #2a78d6"/>
   </g>
   <g id="patch_71">
    <path d="M 82.106885 30.141442 
C 83.409393 30.141442 84.65873 29.62395 85.579742 28.702938 
C 86.500755 27.781925 87.018247 26.532588 87.018247 25.23008 
C 87.018247 23.927571 86.500755 22.678235 85.579742 21.757222 
C 84.65873 20.836209 83.409393 20.318717 82.106885 20.318717 
C 80.804376 20.318717 79.555039 20.836209 78.634027 21.757222 
C 77.713014 22.678235 77.195522 23.927571 77.195522 25.23008 
C 77.195522 26.532588 77.713014 27.781925 78.634027 28.702938 
C 79.555039 29.62395 80.804376 30.141442 82.106885 30.141442 
z
" clip-path="url(#pd399805084)" style="fill: #2a78d6"/>
   </g>
   <g id="patch_72">
    <path d="M 95.044132 30.141442 
C 96.346641 30.141442 97.595977 29.62395 98.51699 28.702938 
C 99.438003 27.781925 99.955495 26.532588 99.955495 25.23008 
C 99.955495 23.927571 99.438003 22.678235 98.51699 21.757222 
C 97.595977 20.836209 96.346641 20.318717 95.044132 20.318717 
C 93.741624 20.318717 92.492287 20.836209 91.571275 21.757222 
C 90.650262 22.678235 90.13277 23.927571 90.13277 25.23008 
C 90.13277 26.532588 90.650262 27.781925 91.571275 28.702938 
C 92.492287 29.62395 93.741624 30.141442 95.044132 30.141442 
z
" clip-path="url(#pd399805084)" style="fill: #2a78d6"/>
   </g>
   <g id="patch_73">
    <path d="M 107.98138 30.141442 
C 109.283889 30.141442 110.533225 29.62395 111.454238 28.702938 
C 112.375251 27.781925 112.892743 26.532588 112.892743 25.23008 
C 112.892743 23.927571 112.375251 22.678235 111.454238 21.757222 
C 110.533225 20.836209 109.283889 20.318717 107.98138 20.318717 
C 106.678872 20.318717 105.429535 20.836209 104.508522 21.757222 
C 103.58751 22.678235 103.070018 23.927571 103.070018 25.23008 
C 103.070018 26.532588 103.58751 27.781925 104.508522 28.702938 
C 105.429535 29.62395 106.678872 30.141442 107.98138 30.141442 
z
" clip-path="url(#pd399805084)" style="fill: #eb6834"/>
   </g>
   <g id="patch_74">
    <path d="M 120.918628 30.141442 
C 122.221137 30.141442 123.470473 29.62395 124.391486 28.702938 
C 125.312498 27.781925 125.829991 26.532588 125.829991 25.23008 
C 125.829991 23.927571 125.312498 22.678235 124.391486 21.757222 
C 123.470473 20.836209 122.221137 20.318717 120.918628 20.318717 
C 119.616119 20.318717 118.366783 20.836209 117.44577 21.757222 
C 116.524758 22.678235 116.007265 23.927571 116.007265 25.23008 
C 116.007265 26.532588 116.524758 27.781925 117.44577 28.702938 
C 118.366783 29.62395 119.616119 30.141442 120.918628 30.141442 
z
" clip-path="url(#pd399805084)" style="fill: #eb6834"/>
   </g>
   <g id="patch_75">
    <path d="M 133.855876 30.141442 
C 135.158384 30.141442 136.407721 29.62395 137.328734 28.702938 
C 138.249746 27.781925 138.767238 26.532588 138.767238 25.23008 
C 138.767238 23.927571 138.249746 22.678235 137.328734 21.757222 
C 136.407721 20.836209 135.158384 20.318717 133.855876 20.318717 
C 132.553367 20.318717 131.304031 20.836209 130.383018 21.757222 
C 129.462005 22.678235 128.944513 23.927571 128.944513 25.23008 
C 128.944513 26.532588 129.462005 27.781925 130.383018 28.702938 
C 131.304031 29.62395 132.553367 30.141442 133.855876 30.141442 
z
" clip-path="url(#pd399805084)" style="fill: #eb6834"/>
   </g>
  </g>
 </g>
 <defs>
  <clipPath id="pd399805084">
   <rect x="1.44" y="1.44" width="166.32" height="166.32"/>
  </clipPath>
 </defs>
</svg>
